HIERARCHY
ROOT Pelvis
{
	OFFSET 0.000000 0.000000 0.000000
	CHANNELS 6 Xposition Yposition Zposition Xrotation Yrotation Zrotation
	JOINT LeftUpLeg_virtual
	{
		OFFSET 0.000000 0.000000 0.000000
		CHANNELS 3 Xrotation Yrotation Zrotation
		JOINT LeftUpLeg
		{
			OFFSET 18.735201 -5.666702 -4.541200
			CHANNELS 3 Xrotation Yrotation Zrotation
			JOINT LeftLeg
			{
				OFFSET -0.021200 -31.938179 0.493100
				CHANNELS 3 Xrotation Yrotation Zrotation
				JOINT LeftFoot
				{
					OFFSET 0.021200 -31.938179 -4.336299
					CHANNELS 3 Xrotation Yrotation Zrotation
					JOINT LeftToeBase
					{
						OFFSET 0.943001 -26.722000 15.023500
						CHANNELS 3 Xrotation Yrotation Zrotation
						End Site
						{
							OFFSET 0 0 0
						}
					}
				}
			}
		}
	}
	JOINT RightUpLeg_virtual
	{
		OFFSET 0.000000 0.000000 0.000000
		CHANNELS 3 Xrotation Yrotation Zrotation
		JOINT RightUpLeg
		{
			OFFSET -18.735201 -5.666702 -4.541200
			CHANNELS 3 Xrotation Yrotation Zrotation
			JOINT RightLeg
			{
				OFFSET 0.018946 -31.938133 0.493100
				CHANNELS 3 Xrotation Yrotation Zrotation
				JOINT RightFoot
				{
					OFFSET -0.018946 -31.938126 -4.336299
					CHANNELS 3 Xrotation Yrotation Zrotation
					JOINT RightToeBase
					{
						OFFSET -0.943001 -26.722004 15.023500
						CHANNELS 3 Xrotation Yrotation Zrotation
						End Site
						{
							OFFSET 0 0 0
						}
					}
				}
			}
		}
	}
	JOINT Hips_virtual
	{
		OFFSET 0.000000 0.000000 0.000000
		CHANNELS 3 Xrotation Yrotation Zrotation
		JOINT Hips
		{
			OFFSET -0.000000 -0.000000 -0.000000
			CHANNELS 3 Xrotation Yrotation Zrotation
			JOINT Spine
			{
				OFFSET 0.000000 10.199997 -0.299500
				CHANNELS 3 Xrotation Yrotation Zrotation
				JOINT Spine1
				{
					OFFSET 0.000000 11.900002 -1.516600
					CHANNELS 3 Xrotation Yrotation Zrotation
					JOINT Spine2
					{
						OFFSET 0.000000 13.600006 -2.842500
						CHANNELS 3 Xrotation Yrotation Zrotation
						JOINT Neck_virtual
						{
							OFFSET 0.000000 0.000000 0.000000
							CHANNELS 3 Xrotation Yrotation Zrotation
							JOINT Neck
							{
								OFFSET 0.000000 9.624100 -2.890100
								CHANNELS 3 Xrotation Yrotation Zrotation
								JOINT Head
								{
									OFFSET 0.000000 14.068802 -1.351900
									CHANNELS 3 Xrotation Yrotation Zrotation
									End Site
									{
										OFFSET 0 0 0
									}
								}
							}
						}
						JOINT LeftShoulder_virtual
						{
							OFFSET 0.000000 0.000000 0.000000
							CHANNELS 3 Xrotation Yrotation Zrotation
							JOINT LeftShoulder
							{
								OFFSET 15.263000 10.923401 -0.547700
								CHANNELS 3 Xrotation Yrotation Zrotation
								JOINT LeftArm
								{
									OFFSET 25.438599 -2.830597 -13.032500
									CHANNELS 3 Xrotation Yrotation Zrotation
									JOINT LeftForeArm
									{
										OFFSET 29.960503 0.000000 0.000000
										CHANNELS 3 Xrotation Yrotation Zrotation
										JOINT LeftHand
										{
											OFFSET 27.849251 0.000000 0.000000
											CHANNELS 3 Xrotation Yrotation Zrotation
											End Site
											{
												OFFSET 0 0 0
											}
										}
									}
								}
							}
						}
						JOINT RightShoulder_virtual
						{
							OFFSET 0.000000 0.000000 0.000000
							CHANNELS 3 Xrotation Yrotation Zrotation
							JOINT RightShoulder
							{
								OFFSET -15.263000 10.923401 -0.547700
								CHANNELS 3 Xrotation Yrotation Zrotation
								JOINT RightArm
								{
									OFFSET -25.438599 -2.830597 -13.032500
									CHANNELS 3 Xrotation Yrotation Zrotation
									JOINT RightForeArm
									{
										OFFSET -29.960503 0.000000 0.000000
										CHANNELS 3 Xrotation Yrotation Zrotation
										JOINT RightHand
										{
											OFFSET -27.849251 0.000000 0.000000
											CHANNELS 3 Xrotation Yrotation Zrotation
											End Site
											{
												OFFSET 0 0 0
											}
										}
									}
								}
							}
						}
					}
				}
			}
		}
	}
}
MOTION
Frames: 5
Frame Time: 0.03333333
11.095310 25.192673 401.856659 0.000000 0.000000 0.000000 46.324436 -48.594368 79.059084 -69.111938 -14.260213 41.623692 34.760895 -15.853706 1.572972 1.261853 3.661254 -43.310445 0.000000 0.000000 0.000000 46.324436 -48.594368 79.059084 -106.624758 -4.681144 -12.145528 129.372321 19.666063 -2.750551 46.189195 17.130657 46.602398 0.000000 0.000000 0.000000 46.324436 -48.594368 79.059084 -0.000001 0.000000 -0.000001 10.072938 -7.212764 -2.186961 20.581467 -10.516337 -0.144608 0.000000 0.000000 0.000000 20.581467 -10.516336 -0.144614 1.278248 2.016723 -1.256897 0.000000 0.000000 0.000000 20.581467 -10.516336 -0.144614 0.362232 -5.563728 -21.430644 0.286719 6.219474 -63.452020 31.648248 -6.430904 -10.299329 0.000000 0.000000 0.000000 20.581467 -10.516336 -0.144614 -0.050573 24.927846 12.864281 -31.840071 -0.829609 -5.819321 -19.939270 5.531927 -2.665266 0.000000 0.000000 0.000000 
11.346550 26.106533 408.221283 0.000000 0.000000 0.000000 48.422790 -47.701727 77.437953 -73.228015 -15.898949 45.489613 34.630569 -16.606900 -0.544250 7.004227 1.400461 -47.142171 0.000000 0.000000 0.000000 48.422790 -47.701727 77.437953 -104.491608 -1.203445 -16.552673 128.668702 26.240222 -2.311159 45.467941 17.453343 48.418149 0.000000 0.000000 0.000000 48.422790 -47.701727 77.437953 -0.000002 0.000001 0.000001 9.840097 -5.973835 -2.071380 20.001881 -8.523661 -0.281549 0.000000 0.000000 0.000000 20.001893 -8.523659 -0.281538 0.880005 2.108784 -0.935434 0.000000 0.000000 0.000000 20.001893 -8.523659 -0.281538 0.397071 -5.187127 -22.907263 -0.202599 5.720611 -61.837589 33.732976 -7.084502 -10.464578 0.000000 0.000000 0.000000 20.001893 -8.523659 -0.281538 -0.236751 25.773731 13.779216 -31.371424 -4.560768 -1.693874 -24.756796 7.161671 -2.452492 0.000000 0.000000 0.000000 
11.524418 27.066006 413.862579 0.000000 0.000000 0.000000 49.221963 -47.131386 75.606321 -80.413197 -19.157432 46.255349 42.253698 -17.206874 -2.617854 10.651665 -0.149087 -43.960392 0.000000 0.000000 0.000000 49.221963 -47.131386 75.606321 -101.716652 0.448488 -21.405348 126.617746 29.924968 -1.961901 46.472330 17.999963 48.555883 0.000000 0.000000 0.000000 49.221963 -47.131386 75.606321 -0.000003 -0.000001 -0.000001 9.515292 -5.007697 -2.336115 19.278004 -6.757571 -0.819784 0.000000 0.000000 0.000000 19.277994 -6.757570 -0.819794 0.472718 2.209578 -0.623712 0.000000 0.000000 0.000000 19.277994 -6.757570 -0.819794 0.465112 -4.608219 -24.755898 -0.485222 5.159804 -58.615386 35.989220 -7.811711 -10.600256 0.000000 0.000000 0.000000 19.277994 -6.757570 -0.819794 -0.396561 26.079971 14.675674 -30.053485 -9.716190 4.642501 -31.232522 11.814318 -0.462039 0.000000 0.000000 0.000000 
11.686989 27.968536 419.352295 0.000000 0.000000 0.000000 48.348894 -47.200381 73.231000 -88.245177 -21.849155 45.197623 51.165439 -17.678603 -4.646931 13.993560 -1.375730 -39.524710 0.000000 0.000000 0.000000 48.348894 -47.200381 73.231000 -97.505738 2.119910 -27.018540 124.727355 32.898754 -1.566092 47.376422 18.432112 48.503769 0.000000 0.000000 0.000000 48.348894 -47.200381 73.231000 -0.000000 0.000002 0.000002 9.202515 -4.078831 -2.809516 18.588286 -5.258759 -1.680267 0.000000 0.000000 0.000000 18.588307 -5.258759 -1.680265 0.085576 2.307814 -0.337899 0.000000 0.000000 0.000000 18.588307 -5.258759 -1.680265 0.565326 -3.855086 -26.469881 -0.377986 4.639002 -53.992365 38.100434 -8.539165 -10.722980 0.000000 0.000000 0.000000 18.588307 -5.258759 -1.680265 -0.494401 25.605339 15.379846 -27.617725 -15.476806 13.095679 -37.951301 18.998060 2.816099 0.000000 0.000000 0.000000 
11.771080 28.807674 424.471344 0.000000 0.000000 0.000000 45.592503 -47.818738 69.648341 -96.969261 -23.454455 42.245891 60.299034 -18.766961 -6.080795 15.538008 -1.794589 -34.329671 0.000000 0.000000 0.000000 45.592503 -47.818738 69.648341 -91.244115 3.245273 -33.464109 122.944006 35.296744 -1.092321 47.680226 18.565474 48.465250 0.000000 0.000000 0.000000 45.592503 -47.818738 69.648341 0.000003 -0.000001 0.000000 8.968314 -3.146688 -3.320550 18.069542 -4.089484 -2.543627 0.000000 0.000000 0.000000 18.069542 -4.089485 -2.543628 -0.259270 2.394843 -0.090710 0.000000 0.000000 0.000000 18.069542 -4.089485 -2.543628 0.682223 -2.993236 -27.468051 0.233027 4.312529 -48.450073 39.748689 -9.175137 -10.853627 0.000000 0.000000 0.000000 18.069542 -4.089485 -2.543628 -0.497456 24.275647 15.686303 -23.816542 -20.840905 23.243820 -42.950186 27.846618 6.379462 0.000000 0.000000 0.000000 
